<svg id="Layer_1" data-name="Layer 1" xmlns="http://www.w3.org/2000/svg" viewBox="0 0 158 54.33"><defs><style>.cls-1{fill:#04050a;}.cls-2{fill:#1d1e1c;fill-rule:evenodd;}.cls-3{fill:#097ec1;}</style></defs><path class="cls-1" d="M144.64,84.94V65.53H142.5V65.1h15l.38,4.93h-.47c-.15-1.74-.62-2.93-1.41-3.55s-2.28-1-4.46-1H147.7v9.3h.94a6.05,6.05,0,0,0,3.52-.71,3.4,3.4,0,0,0,.89-2.74v-.12h.43v7.6h-.43V78.6a3.32,3.32,0,0,0-.8-2.61c-.53-.46-1.74-.69-3.61-.69h-.94v9.64h3.92q3.93,0,5.44-1.2c1-.8,1.51-2.19,1.51-4.18v-.09H159v5.9H142.5v-.43ZM125.2,82.59a2.55,2.55,0,0,0,.46,1.85,2,2,0,0,0,.82.35,5.63,5.63,0,0,0,1.41.15v.43H122.3v-.43a4,4,0,0,0,1.14-.13,1.66,1.66,0,0,0,.7-.37,2.8,2.8,0,0,0,.42-1.88v-17H122.3V65.1h5.79L138.92,80V67.89c0-1-.15-1.59-.48-1.86a1.81,1.81,0,0,0-.81-.35,5.63,5.63,0,0,0-1.41-.15V65.1h5.57v.43a3.75,3.75,0,0,0-1.14.15,1.64,1.64,0,0,0-.7.36,2.87,2.87,0,0,0-.41,1.89V85.52h-.35l-14-19.1Zm-11,2.78v-.43h2.29V65.53h-2.29V65.1h7.55v.43H119.6V84.94h2.17v.43Zm-17.1,0v-.43h2.36V65.53H97.12V65.1h15.33l.44,5.17h-.5a4.86,4.86,0,0,0-1.64-3.7q-1.43-1-5-1h-3.18v9.3h.81c2,0,3.32-.25,3.91-.75a3.79,3.79,0,0,0,.88-2.94V71h.44v7.85l-.44,0a3.63,3.63,0,0,0-.87-2.84c-.58-.49-1.89-.73-3.92-.73h-.81v9.67H105v.43Zm-16.93-.43V65.53H78.05V65.1H93L93.42,70H93a4.86,4.86,0,0,0-1.41-3.55c-.79-.63-2.28-1-4.46-1H83.25v9.3h.94a6.05,6.05,0,0,0,3.52-.71,3.37,3.37,0,0,0,.89-2.74v-.12H89v7.6H88.6V78.6A3.32,3.32,0,0,0,87.8,76c-.53-.46-1.73-.69-3.61-.69h-.94v9.64h3.92q3.93,0,5.44-1.2c1-.8,1.51-2.19,1.51-4.18v-.09h.43v5.9H78.05v-.43ZM64,78.12h.42a8.3,8.3,0,0,0,.53,3,7.73,7.73,0,0,0,1.39,2.3,5.59,5.59,0,0,0,4.37,1.94A5,5,0,0,0,74.19,84a4.33,4.33,0,0,0,1.41-3.3,3.87,3.87,0,0,0-.32-1.55,3.33,3.33,0,0,0-1-1.24c-.66-.59-2.22-1.12-4.66-1.57l-.4-.08a7.44,7.44,0,0,1-4.09-1.87A5.34,5.34,0,0,1,64,70.68a6.17,6.17,0,0,1,1.52-4.39,5.35,5.35,0,0,1,4.08-1.61,6.89,6.89,0,0,1,3.25.87l1.69.87a.7.7,0,0,0,.55-.28,1.14,1.14,0,0,0,.22-.72v-.17h.43v6h-.43a7.85,7.85,0,0,0-1.86-4.53,5,5,0,0,0-3.86-1.6,4.41,4.41,0,0,0-3.14,1.07,4,4,0,0,0-1.13,3,5.41,5.41,0,0,0,.09,1,3.2,3.2,0,0,0,.3.87,3.31,3.31,0,0,0,1.24,1.29,7.89,7.89,0,0,0,2.27.59c1.18.18,2.08.34,2.71.5a7.25,7.25,0,0,1,3.92,2A5.45,5.45,0,0,1,77,79.15,6.76,6.76,0,0,1,75.28,84a5.93,5.93,0,0,1-4.51,1.81,9,9,0,0,1-3.56-.8,13.53,13.53,0,0,0-2.08-.79.61.61,0,0,0-.52.32,1.58,1.58,0,0,0-.16.39,1.51,1.51,0,0,0-.07.48H64Z" transform="translate(-1 -52.88)"/><path class="cls-2" d="M118.1,61.17a1.6,1.6,0,1,1-1.6,1.6,1.6,1.6,0,0,1,1.6-1.6" transform="translate(-1 -52.88)"/><path class="cls-1" d="M139.14,89.7l.51,0,.59,0a4.82,4.82,0,0,1,1.82.32,2.87,2.87,0,0,1,1.18.92,3.87,3.87,0,0,1,.65,1.42,8.09,8.09,0,0,1,.19,1.85,7.49,7.49,0,0,1-.07,1.09,5.39,5.39,0,0,1-.23,1,4.69,4.69,0,0,1-.44.94,2.81,2.81,0,0,1-.62.73,2.24,2.24,0,0,1-.73.42,3.87,3.87,0,0,1-.83.2,8.14,8.14,0,0,1-.87,0l-.64,0-.51,0Zm-2.73,9H139l.44,0,.44,0h1.21a5.82,5.82,0,0,0,.64-.06,2.62,2.62,0,0,0,.57-.12,4.22,4.22,0,0,0,.59-.21,4.54,4.54,0,0,0,1-.62,3.83,3.83,0,0,0,.85-.9,4.36,4.36,0,0,0,.57-1.21,5.51,5.51,0,0,0,.2-1.53,5.32,5.32,0,0,0-.17-1.4,4.19,4.19,0,0,0-.55-1.24,3.9,3.9,0,0,0-.94-1,4.58,4.58,0,0,0-1.36-.69,3.94,3.94,0,0,0-.51-.14l-.5-.1-.57,0-.7,0h-3.85v.18h1.44v8.84h-1.44Zm-6.6-9,.4,0h.48a3.21,3.21,0,0,1,.68.07A1.49,1.49,0,0,1,132,90a1.47,1.47,0,0,1,.45.61,2.91,2.91,0,0,1,.17,1.08,3.43,3.43,0,0,1-.12,1,1.32,1.32,0,0,1-.33.61,1.14,1.14,0,0,1-.51.32,2.22,2.22,0,0,1-.65.09h-1.19Zm-2.73,9h4.16v-.18h-1.43V93.88h1.7A1.85,1.85,0,0,1,132,94a1.22,1.22,0,0,1,.44.28,1.36,1.36,0,0,1,.35.52,2.39,2.39,0,0,1,.18.85l.09,1.17a6.1,6.1,0,0,0,.14.87,1.72,1.72,0,0,0,.31.62,1.29,1.29,0,0,0,.55.38,2.53,2.53,0,0,0,.85.13,2.87,2.87,0,0,0,.58-.06,1.52,1.52,0,0,0,.35-.13l.21-.15-.12-.14a.83.83,0,0,1-.32.2.91.91,0,0,1-.35.07.64.64,0,0,1-.4-.13.8.8,0,0,1-.25-.32,2.71,2.71,0,0,1-.14-.43,3.69,3.69,0,0,1-.06-.55c0-.21,0-.43-.05-.66s0-.46,0-.68a3.9,3.9,0,0,0-.11-.59,1.57,1.57,0,0,0-.32-.6,2,2,0,0,0-.51-.42,3.33,3.33,0,0,0-.58-.26l-.56-.15-.43-.07v0a3.54,3.54,0,0,0,1-.26,2.5,2.5,0,0,0,.67-.43,2,2,0,0,0,.38-.5,1.79,1.79,0,0,0,.18-.48,1.4,1.4,0,0,0,0-.38,1.79,1.79,0,0,0-.08-.55,1.7,1.7,0,0,0-.27-.56,2.47,2.47,0,0,0-.47-.51,2.45,2.45,0,0,0-.71-.38,3.34,3.34,0,0,0-.8-.16c-.28,0-.59,0-.92,0h-3.7v.18h1.43v8.84h-1.43Zm-4.36-4h-2.84L121.3,91Zm-5.62,4h2.78v-.18h-1.44L119.8,95h3l1.36,3.59h-1.44v.18h4v-.18h-1.15L122,89.29h-.31l-3.49,9.25H117.1Zm-5.5,0h4.17v-.18h-1.44V94.42l2.52-4.72h1.26v-.18h-2.77v.18h1.31l-2.45,4.55-2.58-4.55h1.29v-.18h-4v.18h1.18L113,94.83v3.71H111.6Zm-7.88-9,.31,0,.44,0a4.76,4.76,0,0,1,1.07.11,1.45,1.45,0,0,1,1.13,1.07,4.19,4.19,0,0,1,.13,1.1,3.1,3.1,0,0,1-.25,1.26,1.68,1.68,0,0,1-.69.75,2.22,2.22,0,0,1-1.09.25h-.33l-.36,0-.36-.05Zm-2.73,9h4.16v-.18h-1.43V94.28l.32,0,.36,0h.29a5.62,5.62,0,0,0,1.1-.11,4.16,4.16,0,0,0,1-.31,2.93,2.93,0,0,0,.8-.5,2,2,0,0,0,.52-.68,1.79,1.79,0,0,0,.19-.84,2,2,0,0,0-.26-1,2.36,2.36,0,0,0-.71-.77,3.53,3.53,0,0,0-1.09-.5,4.92,4.92,0,0,0-1.36-.18H101v.18h1.44v8.84H101Zm-5,0h4.17v-.18H98.74V89.7h1.44v-.18H96v.18h1.44v8.84H96Zm-10.57,0H89.6v-.18H88.17V94.11h4.3v4.43H91v.18H95.2v-.18H93.77V89.7H95.2v-.18H91v.18h1.43v4.23h-4.3V89.7H89.6v-.18H85.44v.18h1.44v8.84H85.44Zm-8,0h.19s0-.1.07-.14a.23.23,0,0,1,.12-.1.4.4,0,0,1,.2,0,1.55,1.55,0,0,1,.34,0,2.65,2.65,0,0,1,.37.12l.36.11.41.1a2.25,2.25,0,0,0,.36.06c.12,0,.25,0,.39,0h.47a4,4,0,0,0,1.38-.25,3.08,3.08,0,0,0,1-.68A3,3,0,0,0,84,95.87,2.42,2.42,0,0,0,83.8,95a1.9,1.9,0,0,0-.43-.63,2.49,2.49,0,0,0-.56-.42,4.06,4.06,0,0,0-.58-.25l-.47-.16L80.19,93c-.22-.07-.45-.15-.67-.24a3.08,3.08,0,0,1-.59-.33,1.47,1.47,0,0,1-.43-.5,1.37,1.37,0,0,1-.17-.7,1.73,1.73,0,0,1,.14-.71,1.45,1.45,0,0,1,.37-.5,1.72,1.72,0,0,1,.51-.33,3.13,3.13,0,0,1,.57-.18,3.5,3.5,0,0,1,.54,0,2.32,2.32,0,0,1,1,.2,2.24,2.24,0,0,1,.72.53,3,3,0,0,1,.49.76,4.64,4.64,0,0,1,.26.9h.15V89.52h-.18a1.18,1.18,0,0,1-.11.18.28.28,0,0,1-.11.08h-.17a.85.85,0,0,1-.35-.08l-.39-.17a3,3,0,0,0-.53-.17,3.28,3.28,0,0,0-.76-.08,3.21,3.21,0,0,0-1.14.2,2.77,2.77,0,0,0-.9.57,2.56,2.56,0,0,0-.58.86A2.74,2.74,0,0,0,77.63,92a2.08,2.08,0,0,0,.24,1,2.17,2.17,0,0,0,.71.74,4.53,4.53,0,0,0,1.17.52l1.49.45a3.69,3.69,0,0,1,.57.22,2.92,2.92,0,0,1,.57.37,1.79,1.79,0,0,1,.42.55,1.68,1.68,0,0,1,.17.77,2.62,2.62,0,0,1-.06.54,2,2,0,0,1-.22.56,1.77,1.77,0,0,1-.41.5,2.08,2.08,0,0,1-.66.36,2.86,2.86,0,0,1-.94.14,4.79,4.79,0,0,1-.52,0,2.38,2.38,0,0,1-.58-.08,2.19,2.19,0,0,1-.6-.25,2.23,2.23,0,0,1-.57-.47,3.46,3.46,0,0,1-.5-.79A6.35,6.35,0,0,1,77.54,96H77.4Z" transform="translate(-1 -52.88)"/><path class="cls-3" d="M38.28,55.51c-2.09,0-4.36-2.63-10.12-2.63a16.32,16.32,0,0,0-16,13.6H1.93v1.38s1.7,0,1.7,2.07S1,74.3,1,80.05a16.34,16.34,0,0,0,13.59,16v10.19H16s0-1.7,2.08-1.7,4.36,2.63,10.11,2.63a16.33,16.33,0,0,0,16-13.58H54.4V92.25s-1.7,0-1.7-2.08,2.63-4.36,2.63-10.12A16.34,16.34,0,0,0,41.74,64V53.81H40.36s0,1.7-2.08,1.7M1.92,80.05A10.25,10.25,0,0,1,11.85,69.7c.06,6.58,4.55,12.13,10,14.52A10,10,0,0,1,15.29,90C7.68,92.32,1.92,86,1.92,80.05m26.24-4.34a4.34,4.34,0,1,1-4.33,4.34,4.34,4.34,0,0,1,4.33-4.34m10,17.22c2.32,7.61-4,13.36-9.95,13.36a10.25,10.25,0,0,1-10.35-9.93c6.58,0,12.14-4.54,14.53-10a10,10,0,0,1,5.77,6.55m16.3-12.88a10.25,10.25,0,0,1-9.93,10.36c0-6.58-4.54-12.14-10-14.54a9.94,9.94,0,0,1,6.54-5.76c7.61-2.33,13.36,4,13.36,9.94M38.52,63.74c-6.58,0-12.13,4.54-14.52,10a9.93,9.93,0,0,1-5.78-6.55c-2.32-7.61,4-13.36,9.94-13.36a10.25,10.25,0,0,1,10.36,9.94" transform="translate(-1 -52.88)"/></svg>